<?xml version="1.0" encoding="utf-8"?>
<!-- Generator: Adobe Illustrator 15.1.0, SVG Export Plug-In . SVG Version: 6.00 Build 0)  -->
<!DOCTYPE svg PUBLIC "-//W3C//DTD SVG 1.1//EN" "http://www.w3.org/Graphics/SVG/1.1/DTD/svg11.dtd">
<svg version="1.1" id="Ebene_1" xmlns="http://www.w3.org/2000/svg" xmlns:xlink="http://www.w3.org/1999/xlink" x="0px" y="0px"
	 width="120px" height="120px" viewBox="0 0 120 120" enable-background="new 0 0 120 120" xml:space="preserve">
<path fill="#FFFFFF" d="M62.395,96.965c-16.42,0-31.717-8.824-39.918-23.031C9.983,52.295,17.117,24.635,38.303,11.662l-1.771-3.069
	c-10.93,6.66-18.755,17.079-22.08,29.485c-3.428,12.795-1.669,26.159,4.954,37.629c9.174,15.889,25.877,24.783,43.027,24.783
	c8.033,0.002,16.159-1.955,23.662-6.051l-1.771-3.066C77.586,95.031,70.032,96.965,62.395,96.965z"/>
<path fill="#CEEDE5" d="M41.666,115.602h41.368c-0.543-2.301-2.613-4.016-5.075-4.016H46.742
	C44.279,111.586,42.209,113.301,41.666,115.602z"/>
<path fill="#B2B2B2" d="M71.538,25.349c-4.918,4.595-10.141,8.533-15.714,11.853l6.969,12.069L82.715,37.77
	C79.514,32.855,75.616,28.753,71.538,25.349z"/>
<path fill="#06C290" d="M43.006,90.012c3.008-3.783,6.132-7.262,9.388-10.443c-5.132-4.068-9.317-8.836-12.545-14.279l-14.677,8.475
	C29.52,80.834,35.752,86.418,43.006,90.012z"/>
<path fill="#06C290" d="M35.43,46.148c0.901,5.223,2.555,10.635,5.315,15.854l19.967-11.529l-6.969-12.069
	C48.025,41.603,41.941,44.177,35.43,46.148z"/>
<path fill="#B2B2B2" d="M84.175,40.138c-0.063-0.111-0.133-0.216-0.198-0.326L63.993,51.35l7.846,13.589
	c5.711-3.195,11.787-5.766,18.29-7.736C89.17,51.101,87.196,45.398,84.175,40.138z"/>
<path fill="#06C290" d="M54.148,77.895c4.889-4.553,10.074-8.457,15.608-11.754l-7.845-13.589L41.927,64.09
	C45.055,69.355,49.13,73.967,54.148,77.895z"/>
<path fill="#06C290" d="M23.981,71.68l14.683-8.477c-2.885-5.426-4.631-11.003-5.599-16.37c-4.563,1.261-9.335,2.236-14.329,2.943
	C18.532,57.191,20.22,64.736,23.981,71.68z"/>
<path fill="#B2B2B2" d="M73.044,67.027l12.157,21.057c0.866-0.531,1.717-1.082,2.537-1.666c2.729-9.6,3.633-18.553,2.719-26.797
	C84.276,61.524,78.489,63.984,73.044,67.027z"/>
<path fill="#06C290" d="M18.879,47.33c4.806-0.7,9.401-1.657,13.799-2.887c-1.594-11.301,0.058-21.375,1.278-26.667
	C25.08,25.378,19.82,36.098,18.879,47.33z"/>
<path fill="#06C290" d="M77.272,91.924c-8.938-2.629-16.584-6.277-22.934-10.891c-3.15,3.053-6.174,6.385-9.086,10.01
	c5.344,2.283,11.164,3.521,17.143,3.521C67.473,94.564,72.511,93.66,77.272,91.924z"/>
<path fill="#B2B2B2" d="M84.8,36.566l14.735-8.507c-4.052-6.588-9.739-11.883-16.364-15.483c-3.149,4.023-6.426,7.71-9.849,11.067
	C77.493,27.175,81.487,31.439,84.8,36.566z"/>
<path fill="#B2B2B2" d="M80.985,11.468C75.23,8.746,68.866,7.257,62.312,7.257c-4.808,0-9.582,0.809-14.118,2.368
	c5.056,1.708,14.373,5.5,23.253,12.486C74.761,18.88,77.934,15.335,80.985,11.468z"/>
<path fill="#06C290" d="M35.063,43.742c6.203-1.905,12.011-4.373,17.474-7.427L39.503,13.74c-0.833,0.512-1.648,1.042-2.435,1.601
	C36.233,18.292,33.267,30.138,35.063,43.742z"/>
<path fill="#B2B2B2" d="M69.644,23.824c-10.663-8.252-21.988-11.915-25.02-12.793c-1.032,0.459-2.048,0.958-3.045,1.498
	l13.04,22.585C59.94,31.94,64.934,28.187,69.644,23.824z"/>
<path fill="#06C290" d="M83.125,89.295L70.963,68.229c-5.256,3.133-10.189,6.832-14.847,11.125
	c6.742,4.818,15.009,8.521,24.763,11.07C81.637,90.07,82.387,89.693,83.125,89.295z"/>
<path fill="#B2B2B2" d="M90.884,83.947c6.588-5.666,11.33-13.164,13.629-21.74c0.537-2.002,0.921-4.02,1.171-6.042
	c-4.475,0.69-8.764,1.609-12.881,2.766C93.723,66.693,93.085,75.049,90.884,83.947z"/>
<path fill="#B2B2B2" d="M86.056,38.612c0.063,0.106,0.128,0.206,0.189,0.313c3.129,5.441,5.188,11.323,6.212,17.604
	c4.3-1.191,8.786-2.126,13.467-2.824c0.539-8.141-1.237-16.258-5.196-23.563L86.056,38.612z"/>
<path fill="#262626" d="M62.312,4.857c-6.135,0-12.216,1.248-17.864,3.635c-0.008-0.002-0.025-0.006-0.032-0.008L44.41,8.508
	c-1.373,0.581-2.718,1.229-4.033,1.944l-1.766-3.058c2.601-1.42,5.317-2.622,8.105-3.551c0.628-0.209,0.968-0.889,0.758-1.518
	c-0.209-0.628-0.887-0.968-1.518-0.759C42.64,2.672,39.41,4.126,36.356,5.89C24.33,12.833,15.728,24.043,12.134,37.457
	c-3.594,13.414-1.749,27.424,5.194,39.45c9.389,16.262,26.296,25.529,43.823,25.963v6.316H46.742c-4.199,0-7.615,3.416-7.615,7.615
	V118h46.447v-1.199c0-4.199-3.416-7.615-7.615-7.615H63.551v-6.313c8.45-0.182,16.972-2.422,24.794-6.938
	c2.932-1.693,5.7-3.67,8.229-5.877c0.5-0.434,0.552-1.193,0.116-1.691c-0.437-0.5-1.194-0.553-1.693-0.117
	c-2.114,1.844-4.412,3.508-6.827,4.982l-1.772-3.068c10.113-6.186,17.354-15.842,20.434-27.336c3.184-11.88,1.55-24.289-4.601-34.94
	C94.029,13.682,78.733,4.857,62.312,4.857z M99.535,28.059L84.8,36.566c-3.313-5.127-7.307-9.391-11.478-12.923
	c3.423-3.357,6.699-7.043,9.849-11.067C89.796,16.175,95.483,21.471,99.535,28.059z M32.678,44.443
	c-4.398,1.23-8.993,2.188-13.799,2.887c0.941-11.232,6.201-21.952,15.077-29.554C32.735,23.068,31.083,33.142,32.678,44.443z
	 M33.065,46.833c0.968,5.366,2.714,10.943,5.599,16.37L23.981,71.68c-3.761-6.943-5.449-14.489-5.244-21.903
	C23.73,49.07,28.502,48.095,33.065,46.833z M55.824,37.202c5.573-3.32,10.796-7.258,15.714-11.853
	c4.078,3.404,7.976,7.506,11.177,12.42L62.793,49.271L55.824,37.202z M69.757,66.141c-5.534,3.297-10.72,7.201-15.608,11.754
	c-5.019-3.928-9.094-8.539-12.222-13.805l19.985-11.539L69.757,66.141z M60.712,50.473L40.745,62.002
	c-2.76-5.219-4.414-10.631-5.315-15.854c6.511-1.971,12.595-4.545,18.313-7.744L60.712,50.473z M39.849,65.289
	c3.228,5.443,7.413,10.211,12.545,14.279c-3.256,3.182-6.38,6.66-9.388,10.443c-7.253-3.594-13.486-9.178-17.834-16.248
	L39.849,65.289z M54.338,81.033c6.35,4.613,13.997,8.262,22.934,10.891c-4.762,1.736-9.8,2.641-14.878,2.641
	c-5.979,0-11.799-1.238-17.143-3.521C48.164,87.418,51.188,84.086,54.338,81.033z M56.116,79.354
	c4.658-4.293,9.591-7.992,14.847-11.125l12.162,21.066c-0.738,0.398-1.488,0.775-2.246,1.129
	C71.125,87.875,62.857,84.172,56.116,79.354z M63.993,51.35l19.983-11.538c0.065,0.11,0.135,0.215,0.198,0.326
	c3.021,5.26,4.995,10.962,5.954,17.065c-6.503,1.971-12.579,4.541-18.29,7.736L63.993,51.35z M62.312,7.257
	c6.555,0,12.919,1.489,18.674,4.211c-3.052,3.867-6.225,7.412-9.539,10.642c-8.88-6.986-18.197-10.778-23.253-12.486
	C52.73,8.066,57.504,7.257,62.312,7.257z M44.624,11.031c3.032,0.878,14.356,4.541,25.02,12.793
	c-4.71,4.363-9.703,8.117-15.025,11.29l-13.04-22.585C42.576,11.989,43.592,11.49,44.624,11.031z M39.503,13.74l13.034,22.576
	c-5.463,3.054-11.271,5.521-17.474,7.427c-1.797-13.604,1.169-25.45,2.005-28.402C37.855,14.782,38.67,14.251,39.503,13.74z
	 M77.959,111.586c2.462,0,4.532,1.715,5.075,4.016H41.666c0.543-2.301,2.613-4.016,5.076-4.016H77.959z M62.434,100.49
	c-17.15,0-33.854-8.895-43.027-24.783c-6.623-11.471-8.382-24.834-4.954-37.629c3.324-12.406,11.15-22.825,22.08-29.485l1.771,3.069
	C17.117,24.635,9.983,52.295,22.477,73.934c8.201,14.207,23.498,23.031,39.918,23.031c7.638,0,15.191-1.934,21.93-5.592l1.771,3.066
	C78.593,98.535,70.467,100.492,62.434,100.49z M87.738,86.418c-0.82,0.584-1.671,1.135-2.537,1.666L73.044,67.027
	c5.445-3.043,11.232-5.503,17.413-7.406C91.371,67.865,90.468,76.818,87.738,86.418z M104.513,62.207
	c-2.299,8.576-7.041,16.074-13.629,21.74c2.201-8.898,2.839-17.254,1.919-25.016c4.117-1.157,8.406-2.076,12.881-2.766
	C105.434,58.187,105.05,60.205,104.513,62.207z M105.924,53.705c-4.681,0.698-9.167,1.633-13.467,2.824
	c-1.023-6.281-3.083-12.163-6.212-17.604c-0.062-0.107-0.127-0.207-0.189-0.313l14.672-8.471
	C104.687,37.447,106.463,45.563,105.924,53.705z"/>
<linearGradient id="SVGID_1_" gradientUnits="userSpaceOnUse" x1="10.3403" y1="59.752" x2="108.4199" y2="59.752">
	<stop  offset="0" style="stop-color:#FFFFFF"/>
	<stop  offset="0.398" style="stop-color:#E6E5E5"/>
	<stop  offset="0.6939" style="stop-color:#575757"/>
	<stop  offset="1" style="stop-color:#414042"/>
</linearGradient>
<path opacity="0.08" fill="url(#SVGID_1_)" d="M61.151,102.869v6.316H46.742c-4.199,0-7.615,3.416-7.615,7.615V118h46.447v-1.199
	c0-4.199-3.416-7.615-7.615-7.615H63.551v-6.313c8.45-0.182,16.972-2.422,24.794-6.938c2.932-1.693,5.7-3.67,8.229-5.877
	c0.5-0.434,0.552-1.193,0.116-1.691c-0.437-0.5-1.194-0.553-1.693-0.117c-2.114,1.844-4.412,3.508-6.827,4.982l-1.772-3.068
	c10.113-6.186,17.354-15.842,20.434-27.336c3.184-11.88,1.55-24.289-4.601-34.94C94.029,13.682,78.733,4.857,62.312,4.857
	c-6.135,0-12.216,1.248-17.864,3.635c-0.008-0.002-0.025-0.006-0.032-0.008l-0.006,0.024c-1.372,0.581-2.718,1.229-4.033,1.944
	l-1.765-3.058c2.601-1.42,5.317-2.622,8.105-3.551c0.628-0.209,0.968-0.889,0.758-1.518c-0.209-0.628-0.887-0.968-1.518-0.759
	C42.64,2.672,39.41,4.126,36.356,5.89C24.33,12.833,15.728,24.043,12.134,37.457c-3.594,13.414-1.749,27.424,5.194,39.45
	C26.717,93.168,43.625,102.436,61.151,102.869z"/>
</svg>
