<?xml version="1.0" encoding="utf-8"?>
<!-- Generator: Adobe Illustrator 15.1.0, SVG Export Plug-In . SVG Version: 6.00 Build 0)  -->
<!DOCTYPE svg PUBLIC "-//W3C//DTD SVG 1.1//EN" "http://www.w3.org/Graphics/SVG/1.1/DTD/svg11.dtd">
<svg version="1.1" id="Ebene_1" xmlns="http://www.w3.org/2000/svg" xmlns:xlink="http://www.w3.org/1999/xlink" x="0px" y="0px"
	 width="120px" height="120px" viewBox="0 0 120 120" enable-background="new 0 0 120 120" xml:space="preserve">
<path fill="#FFFFFF" d="M83.009,56.12v14.669h0.227c5.553,0,10.07,4.517,10.07,10.07v16.896c0,5.553-4.518,10.07-10.07,10.07H37.722
	c-5.553,0-10.07-4.518-10.07-10.07V80.859c0-5.554,4.517-10.07,10.07-10.07h0.228V56.12H27.685c-1.666,0-3.234-0.413-4.619-1.131
	v48.413c0,11.039,21.956,11.896,22.639,11.92c5.599,0,10.447-0.014,15.296-0.027c4.345-0.013,8.691-0.027,13.582-0.028
	c1.294-0.002,2.554-0.077,3.742-0.224c4.59-0.567,19.566-3.084,19.566-11.641V54.989c-1.385,0.719-2.953,1.131-4.617,1.131H83.009z"
	/>
<rect x="40.35" y="45.543" fill="#B2B2B2" width="6.469" height="34.91"/>
<rect x="49.219" y="56.12" fill="#FFFFFF" width="22.52" height="14.669"/>
<path fill="#DEDEDE" d="M37.95,86.325V73.188h-0.228c-4.23,0-7.67,3.441-7.67,7.671v16.896c0,4.229,3.44,7.67,7.67,7.67h45.514
	c4.229,0,7.67-3.44,7.67-7.67V80.859c0-4.229-3.44-7.671-7.67-7.671h-0.227v13.137c0,3.107-2.528,5.636-5.637,5.636
	c-3.105,0-5.634-2.528-5.634-5.636V73.188h-22.52v13.137c0,3.107-2.527,5.636-5.635,5.636C40.478,91.961,37.95,89.433,37.95,86.325z
	"/>
<path fill="#FFFFFF" d="M74.138,86.325c0,1.784,1.452,3.235,3.234,3.235c1.785,0,3.236-1.451,3.236-3.235v-3.473h-6.471V86.325z"/>
<rect x="74.138" y="45.543" fill="#B2B2B2" width="6.471" height="34.91"/>
<path fill="#FFFFFF" d="M40.35,86.325c0,1.784,1.452,3.235,3.234,3.235c1.785,0,3.234-1.451,3.234-3.235v-3.473H40.35V86.325z"/>
<path fill="#B2B2B2" d="M100.291,103.401c0,1.933-0.54,3.606-1.461,5.055h5.525c1.256,0,2.47-0.564,3.419-1.591
	c1.261-1.362,1.917-3.396,1.756-5.44l-2.292-46.445c-0.233-2.97-2.086-5.291-4.437-5.699c-0.517,1.521-1.384,2.88-2.511,3.977
	V103.401z"/>
<path fill="#DEDEDE" d="M27.685,53.72H37.95v-9.377c0-0.662,0.538-1.2,1.2-1.2h8.869c0.663,0,1.2,0.538,1.2,1.2v9.377h22.52v-9.377
	c0-0.662,0.537-1.2,1.2-1.2h8.87c0.662,0,1.2,0.538,1.2,1.2v9.377h10.266c4.228,0,7.668-3.441,7.668-7.67V28.655
	c0-8.683-7.063-15.747-15.745-15.747H72.546L71.994,4.79l-11.05-1.3L48.996,5.14l-0.701,7.768H35.759
	c-8.683,0-15.747,7.064-15.747,15.747V46.05C20.013,50.279,23.453,53.72,27.685,53.72z"/>
<path fill="#B2B2B2" d="M11.428,101.391c-0.163,2.078,0.494,4.112,1.755,5.475c0.948,1.026,2.162,1.591,3.418,1.591h5.425
	c-0.854-1.448-1.361-3.117-1.361-5.055V53.257c-1.126-1.097-1.992-2.455-2.509-3.973c-2.32,0.42-4.208,2.783-4.439,5.729
	L11.428,101.391z"/>
<path fill="#666666" d="M11.322,54.861l-2.287,46.376c-0.216,2.739,0.654,5.385,2.386,7.258c1.408,1.523,3.247,2.361,5.181,2.361
	h7.339c6.593,6.342,20.926,6.844,21.71,6.865h0.034c5.61,0,10.464-0.014,15.323-0.028c4.344-0.013,8.688-0.026,13.576-0.028
	c1.393-0.001,2.75-0.082,4.036-0.242c4.537-0.561,13.261-2.18,18.142-6.566h7.593c1.935,0,3.774-0.838,5.181-2.361
	c1.731-1.873,2.602-4.519,2.39-7.224l-2.294-46.445c-0.318-4.084-2.953-7.262-6.333-7.894c0.025-0.292,0.044-0.584,0.044-0.883
	V28.655c0-8.83-6.341-16.205-14.706-17.816c-0.159-0.035-0.323-0.058-0.484-0.087c-0.132-0.021-0.263-0.041-0.394-0.06
	c-0.461-0.07-0.929-0.117-1.403-0.144c-0.15-0.01-0.302-0.018-0.455-0.023c-0.118-0.003-0.232-0.018-0.353-0.018h-0.351H73.791
	V7.443c0-2.622-2.131-4.753-4.753-4.753H51.917c-2.621,0-4.752,2.131-4.752,4.753v3.064H35.759h-0.35
	c-0.119,0-0.234,0.014-0.352,0.018c-0.153,0.006-0.306,0.014-0.458,0.023c-0.472,0.026-0.938,0.073-1.397,0.142
	c-0.134,0.02-0.269,0.041-0.403,0.063c-0.16,0.028-0.32,0.051-0.477,0.084c-8.369,1.612-14.709,8.986-14.709,17.817V46.05
	c0,0.298,0.019,0.59,0.043,0.883C14.278,47.564,11.644,50.747,11.322,54.861z M97.892,103.401c0,8.557-14.977,11.073-19.566,11.641
	c-1.188,0.146-2.448,0.222-3.742,0.224c-4.891,0.001-9.237,0.016-13.582,0.028c-4.849,0.014-9.698,0.027-15.296,0.027
	c-0.683-0.023-22.639-0.881-22.639-11.92V54.989c1.384,0.719,2.953,1.131,4.619,1.131H37.95v14.669h-0.228
	c-5.553,0-10.07,4.517-10.07,10.07v16.896c0,5.553,4.517,10.07,10.07,10.07h45.514c5.553,0,10.07-4.518,10.07-10.07V80.859
	c0-5.554-4.518-10.07-10.07-10.07h-0.227V56.12h10.266c1.664,0,3.232-0.413,4.617-1.131V103.401z M46.818,82.853v3.473
	c0,1.784-1.45,3.235-3.234,3.235c-1.783,0-3.234-1.451-3.234-3.235v-3.473H46.818z M40.35,80.453v-34.91h6.469v34.91H40.35z
	 M43.584,91.961c3.108,0,5.635-2.528,5.635-5.636V73.188h22.52v13.137c0,3.107,2.528,5.636,5.634,5.636
	c3.108,0,5.637-2.528,5.637-5.636V73.188h0.227c4.229,0,7.67,3.441,7.67,7.671v16.896c0,4.229-3.44,7.67-7.67,7.67H37.722
	c-4.23,0-7.67-3.44-7.67-7.67V80.859c0-4.229,3.44-7.671,7.67-7.671h0.228v13.137C37.95,89.433,40.478,91.961,43.584,91.961z
	 M49.219,70.789V56.12h22.52v14.669H49.219z M80.608,82.853v3.473c0,1.784-1.451,3.235-3.236,3.235
	c-1.782,0-3.234-1.451-3.234-3.235v-3.473H80.608z M74.138,80.453v-34.91h6.471v34.91H74.138z M107.238,54.979l2.292,46.445
	c0.161,2.044-0.495,4.078-1.756,5.44c-0.949,1.026-2.163,1.591-3.419,1.591H98.83c0.921-1.448,1.461-3.122,1.461-5.055V53.257
	c1.127-1.097,1.994-2.456,2.511-3.977C105.152,49.689,107.005,52.009,107.238,54.979z M49.566,7.443
	c0-1.299,1.055-2.354,2.352-2.354h17.121c1.299,0,2.354,1.055,2.354,2.354v3.064H49.566V7.443z M20.013,28.655
	c0-8.683,7.064-15.747,15.747-15.747h49.438c8.683,0,15.745,7.064,15.745,15.747V46.05c0,4.229-3.44,7.67-7.668,7.67H83.009v-9.377
	c0-0.662-0.538-1.2-1.2-1.2h-8.87c-0.663,0-1.2,0.538-1.2,1.2v9.377h-22.52v-9.377c0-0.662-0.538-1.2-1.2-1.2H39.15
	c-0.663,0-1.2,0.538-1.2,1.2v9.377H27.685c-4.231,0-7.672-3.441-7.672-7.67V28.655z M18.156,49.284
	c0.517,1.519,1.383,2.876,2.509,3.973v50.144c0,1.938,0.508,3.606,1.361,5.055h-5.425c-1.256,0-2.47-0.564-3.418-1.591
	c-1.261-1.362-1.917-3.396-1.755-5.475l2.289-46.377C13.949,52.067,15.836,49.705,18.156,49.284z"/>
<path opacity="0.08" fill="none" d="M11.322,54.861l-2.287,46.376c-0.216,2.739,0.654,5.385,2.386,7.258
	c1.408,1.523,3.247,2.361,5.181,2.361h7.339c6.593,6.342,20.926,6.844,21.71,6.865h0.034c5.61,0,10.464-0.014,15.323-0.028
	c4.344-0.013,8.688-0.026,13.576-0.028c1.393-0.001,2.75-0.082,4.036-0.242c4.537-0.561,13.261-2.18,18.142-6.566h7.594
	c1.934,0,3.773-0.838,5.18-2.361c1.731-1.873,2.602-4.519,2.39-7.224l-2.294-46.445c-0.318-4.084-2.953-7.262-6.333-7.894
	c0.025-0.292,0.044-0.586,0.044-0.883V28.655c0-8.83-6.341-16.205-14.706-17.816c-0.159-0.035-0.323-0.058-0.484-0.087
	c-0.132-0.022-0.263-0.041-0.394-0.06c-0.461-0.07-0.929-0.117-1.403-0.144c-0.15-0.01-0.302-0.018-0.455-0.023
	c-0.118-0.003-0.232-0.018-0.353-0.018h-0.351H73.791V7.443c0-2.622-2.131-4.753-4.753-4.753H51.917
	c-2.621,0-4.752,2.131-4.752,4.753v3.064H35.759h-0.35c-0.119,0-0.234,0.014-0.352,0.018c-0.153,0.006-0.306,0.014-0.458,0.023
	c-0.472,0.026-0.938,0.073-1.397,0.142c-0.134,0.02-0.269,0.041-0.403,0.063c-0.16,0.028-0.32,0.051-0.477,0.084
	c-8.369,1.612-14.709,8.986-14.709,17.817V46.05c0,0.297,0.019,0.59,0.043,0.883C14.278,47.564,11.644,50.747,11.322,54.861z"/>
</svg>
