<?xml version="1.0" encoding="utf-8"?>
<!-- Generator: Adobe Illustrator 15.1.0, SVG Export Plug-In . SVG Version: 6.00 Build 0)  -->
<!DOCTYPE svg PUBLIC "-//W3C//DTD SVG 1.1//EN" "http://www.w3.org/Graphics/SVG/1.1/DTD/svg11.dtd">
<svg version="1.1" id="Ebene_1" xmlns="http://www.w3.org/2000/svg" xmlns:xlink="http://www.w3.org/1999/xlink" x="0px" y="0px"
	 width="120px" height="120px" viewBox="0 0 120 120" enable-background="new 0 0 120 120" xml:space="preserve">
<path fill="#B2B2B2" d="M25.079,6.516c-2.98,0.564-5.242,3.185-5.242,6.326v84.52c1.356-1.445,3.186-2.434,5.242-2.715V6.516z"/>
<path fill="#FFFFFF" d="M31.31,104.982h-5.031c-0.663,0-1.2-0.539-1.2-1.201s0.537-1.199,1.2-1.199h6.231h15.384H95.36
	c3.678,0,6.67-2.992,6.67-6.67l-0.024-1.873c-1.658,1.789-4.02,2.918-6.646,2.918H26.278c-3.551,0-6.442,2.889-6.442,6.441
	s2.891,6.443,6.442,6.443h5.031V104.982z"/>
<path fill="#B2B2B2" d="M33.709,114.912l6.072-2.275c0.271-0.102,0.57-0.102,0.842,0l6.07,2.275v-9.93H33.709V114.912z"/>
<path fill="#FFFFFF" d="M49.094,104.982v4.859H95.36c3.678,0,6.67-2.992,6.67-6.672v-1.137c-1.659,1.809-4.031,2.949-6.67,2.949
	H49.094z"/>
<path fill="#FFFFFF" d="M82.108,29.985H47.4c-1.695,0-3.075,1.379-3.075,3.075v20.962c0,1.695,1.38,3.075,3.075,3.075h34.708
	c1.695,0,3.075-1.379,3.075-3.075V33.06C85.184,31.365,83.804,29.985,82.108,29.985z M80.835,52.188H48.674
	c-0.663,0-1.2-0.538-1.2-1.2c0-0.662,0.538-1.2,1.2-1.2h32.161c0.663,0,1.2,0.538,1.2,1.2C82.035,51.65,81.498,52.188,80.835,52.188
	z M80.835,45.085H48.674c-0.663,0-1.2-0.538-1.2-1.2s0.538-1.2,1.2-1.2h32.161c0.663,0,1.2,0.537,1.2,1.2
	S81.498,45.085,80.835,45.085z M80.835,37.98H48.674c-0.663,0-1.2-0.537-1.2-1.199c0-0.663,0.538-1.2,1.2-1.2h32.161
	c0.663,0,1.2,0.538,1.2,1.2C82.035,37.443,81.498,37.98,80.835,37.98z"/>
<path fill="#DEDEDE" d="M102.03,87.887V28.355V13.069c0-3.678-2.992-6.669-6.67-6.669H27.479v88.157H95.36
	C99.038,94.557,102.03,91.564,102.03,87.887z M87.584,54.022c0,3.019-2.457,5.475-5.476,5.475H47.4
	c-3.019,0-5.475-2.457-5.475-5.475V33.06c0-3.019,2.456-5.475,5.475-5.475h34.708c3.019,0,5.476,2.457,5.476,5.475V54.022z"/>
<path fill="#666666" d="M31.827,117.631c0.324,0.223,0.736,0.273,1.105,0.137l7.27-2.727l7.271,2.727
	c0.138,0.051,0.28,0.076,0.422,0.076c0.241,0,0.479-0.072,0.683-0.213c0.324-0.225,0.518-0.594,0.518-0.986v-4.404H95.36
	c5.001,0,9.07-4.068,9.07-9.07V87.887V28.355V13.069c0-5-4.069-9.069-9.07-9.069H26.278c-4.875,0-8.842,3.966-8.842,8.841v90.557
	c0,4.875,3.967,8.842,8.842,8.842h5.031v4.404C31.31,117.037,31.503,117.406,31.827,117.631z M46.694,114.912l-6.07-2.275
	c-0.271-0.102-0.57-0.102-0.842,0l-6.072,2.275v-9.93h12.984V114.912z M102.03,103.17c0,3.68-2.992,6.672-6.67,6.672H49.094v-4.859
	H95.36c2.639,0,5.011-1.141,6.67-2.949V103.17z M27.479,6.4H95.36c3.678,0,6.67,2.991,6.67,6.669v15.286v59.531
	c0,3.678-2.992,6.67-6.67,6.67H27.479V6.4z M19.836,12.841c0-3.141,2.262-5.761,5.242-6.326v88.131
	c-2.057,0.281-3.886,1.27-5.242,2.715V12.841z M26.278,109.842c-3.551,0-6.442-2.891-6.442-6.443s2.891-6.441,6.442-6.441H95.36
	c2.626,0,4.987-1.129,6.646-2.918l0.024,1.873c0,3.678-2.992,6.67-6.67,6.67H47.894H32.51h-6.231c-0.663,0-1.2,0.537-1.2,1.199
	s0.537,1.201,1.2,1.201h5.031v4.859H26.278z"/>
<path fill="#666666" d="M80.835,35.581H48.674c-0.663,0-1.2,0.538-1.2,1.2c0,0.662,0.538,1.199,1.2,1.199h32.161
	c0.663,0,1.2-0.537,1.2-1.199C82.035,36.118,81.498,35.581,80.835,35.581z"/>
<path fill="#666666" d="M80.835,42.685H48.674c-0.663,0-1.2,0.537-1.2,1.2s0.538,1.2,1.2,1.2h32.161c0.663,0,1.2-0.538,1.2-1.2
	S81.498,42.685,80.835,42.685z"/>
<path fill="#666666" d="M80.835,49.788H48.674c-0.663,0-1.2,0.538-1.2,1.2c0,0.663,0.538,1.2,1.2,1.2h32.161
	c0.663,0,1.2-0.538,1.2-1.2C82.035,50.326,81.498,49.788,80.835,49.788z"/>
<path fill="#666666" d="M82.108,27.585H47.4c-3.019,0-5.475,2.457-5.475,5.475v20.962c0,3.019,2.456,5.475,5.475,5.475h34.708
	c3.019,0,5.476-2.457,5.476-5.475V33.06C87.584,30.042,85.127,27.585,82.108,27.585z M85.184,54.022c0,1.695-1.38,3.075-3.075,3.075
	H47.4c-1.695,0-3.075-1.379-3.075-3.075V33.06c0-1.695,1.38-3.075,3.075-3.075h34.708c1.695,0,3.075,1.379,3.075,3.075V54.022z"/>
<linearGradient id="SVGID_1_" gradientUnits="userSpaceOnUse" x1="17.436" y1="60.9219" x2="104.4307" y2="60.9219">
	<stop  offset="0" style="stop-color:#FFFFFF"/>
	<stop  offset="0.398" style="stop-color:#E6E5E5"/>
	<stop  offset="0.6939" style="stop-color:#575757"/>
	<stop  offset="1" style="stop-color:#414042"/>
</linearGradient>
<path opacity="0.08" fill="url(#SVGID_1_)" d="M31.827,117.631c0.324,0.223,0.736,0.273,1.105,0.137l7.27-2.727l7.271,2.727
	c0.138,0.051,0.28,0.076,0.422,0.076c0.241,0,0.479-0.072,0.683-0.213c0.324-0.225,0.518-0.594,0.518-0.986v-4.404H95.36
	c5.001,0,9.07-4.068,9.07-9.07V87.887V28.355V13.069c0-5-4.069-9.069-9.07-9.069H26.278c-4.875,0-8.842,3.966-8.842,8.841v90.557
	c0,4.875,3.967,8.842,8.842,8.842h5.031v4.404C31.31,117.037,31.503,117.406,31.827,117.631z"/>
</svg>
